<svg fill="#990000" height="228px" width="228px" version="1.1" id="Layer_1" xmlns="http://www.w3.org/2000/svg" xmlns:xlink="http://www.w3.org/1999/xlink" viewBox="-46.08 -46.08 604.16 604.16" xml:space="preserve" stroke="#990000" stroke-width="5.12"><g id="SVGRepo_bgCarrier" stroke-width="0"></g><g id="SVGRepo_tracerCarrier" stroke-linecap="round" stroke-linejoin="round"></g><g id="SVGRepo_iconCarrier"> <g> <g> <path d="M387.751,324.485l-25.806-32.261c-2.493-3.116-3.865-7.028-3.865-11.018v-59.41c0-56.287-45.792-102.079-102.079-102.079 s-102.079,45.792-102.079,102.079v59.41c0,3.989-1.372,7.902-3.865,11.018l-25.808,32.261c-2.922,3.652-4.531,8.24-4.531,12.918 c0,11.402,9.276,20.678,20.678,20.678h65.472c3.856,24.2,24.866,42.756,50.133,42.756c25.268,0,46.278-18.556,50.133-42.756 h65.472c11.402,0,20.678-9.276,20.678-20.678C392.282,332.725,390.673,328.137,387.751,324.485z M256,384.802 c-16.396,0-30.165-11.421-33.795-26.722h67.589C286.165,373.38,272.396,384.802,256,384.802z M371.606,342.046H140.394 c-2.561,0-4.644-2.083-4.644-4.644c0-1.051,0.361-2.081,1.018-2.902l25.808-32.261c4.759-5.947,7.379-13.418,7.379-21.034v-59.409 c0-47.446,38.6-86.046,86.046-86.046s86.046,38.6,86.046,86.046v59.41c0,7.616,2.62,15.085,7.379,21.034l25.808,32.26 c0.656,0.821,1.018,1.85,1.018,2.902C376.251,339.963,374.167,342.046,371.606,342.046z"></path> </g> </g> <g> <g> <path d="M304.512,174.363c-3.096-3.165-8.171-3.222-11.337-0.126c-3.165,3.096-3.223,8.172-0.127,11.337 c9.54,9.755,14.794,22.618,14.794,36.222v25.653c0,4.427,3.589,8.017,8.017,8.017s8.017-3.589,8.017-8.017v-25.653 C323.875,203.977,316.999,187.132,304.512,174.363z"></path> </g> </g> <g> <g> <path d="M275.366,156.736c-6.266-1.868-12.782-2.815-19.366-2.815c-4.427,0-8.017,3.589-8.017,8.017s3.589,8.017,8.017,8.017 c5.032,0,10.007,0.723,14.786,2.147c0.764,0.228,1.535,0.336,2.294,0.336c3.454,0,6.642-2.249,7.68-5.728 C282.023,162.465,279.61,158,275.366,156.736z"></path> </g> </g> <g> <g> <path d="M435.3,140.49c-2.403-3.72-7.365-4.789-11.083-2.387c-3.72,2.402-4.788,7.364-2.387,11.083 c24.066,37.278,34.856,82.272,30.383,126.692c-4.534,45.037-24.694,87.501-56.764,119.571c-3.131,3.131-3.131,8.207,0,11.337 c1.565,1.566,3.617,2.348,5.668,2.348s4.103-0.782,5.668-2.348c34.677-34.676,56.475-80.597,61.379-129.302 C473.001,229.461,461.329,180.809,435.3,140.49z"></path> </g> </g> <g> <g> <path d="M415.935,114.943c-2.927-3.313-6.004-6.585-9.148-9.729c-3.132-3.132-8.207-3.131-11.338,0 c-3.131,3.131-3.131,8.206,0,11.337c2.911,2.911,5.76,5.942,8.469,9.008c1.584,1.793,3.792,2.709,6.011,2.709 c1.887,0,3.781-0.662,5.305-2.008C418.553,123.327,418.866,118.261,415.935,114.943z"></path> </g> </g> <g> <g> <path d="M16.033,256c0-64.097,24.961-124.358,70.284-169.683c3.131-3.131,3.131-8.207,0-11.337c-3.131-3.131-8.207-3.131-11.337,0 C26.628,123.333,0,187.62,0,256c0,68.38,26.628,132.667,74.981,181.019c1.565,1.565,3.617,2.348,5.668,2.348 s4.103-0.782,5.668-2.348c3.131-3.131,3.131-8.206,0-11.337C40.994,380.358,16.033,320.097,16.033,256z"></path> </g> </g> <g> <g> <path d="M437.019,74.981c-3.131-3.131-8.207-3.131-11.337,0c-3.131,3.131-3.131,8.206,0,11.337 c45.323,45.324,70.284,105.585,70.284,169.683s-24.961,124.358-70.284,169.683c-3.131,3.131-3.131,8.207,0,11.337 c1.565,1.565,3.617,2.348,5.668,2.348s4.103-0.782,5.668-2.348C485.372,388.667,512,324.38,512,256 S485.372,123.333,437.019,74.981z"></path> </g> </g> <g> <g> <path d="M116.55,116.553c3.131-3.131,3.131-8.207,0-11.337c-3.13-3.134-8.206-3.134-11.337-0.002 c-34.677,34.676-56.475,80.597-61.379,129.302C39,282.538,50.671,331.191,76.7,371.511c1.534,2.376,4.111,3.671,6.743,3.671 c1.49,0,2.996-0.415,4.341-1.283c3.72-2.402,4.788-7.364,2.387-11.083c-24.066-37.278-34.856-82.272-30.383-126.692 C64.321,191.087,84.48,148.623,116.55,116.553z"></path> </g> </g> <g> <g> <path d="M116.551,395.45c-2.912-2.912-5.761-5.943-8.47-9.009c-2.932-3.318-7.997-3.631-11.315-0.699 c-3.318,2.932-3.631,7.997-0.7,11.315c2.927,3.313,6.004,6.585,9.148,9.729c1.566,1.566,3.617,2.348,5.669,2.348 c2.052,0,4.103-0.782,5.668-2.348C119.682,403.656,119.682,398.581,116.551,395.45z"></path> </g> </g> </g></svg>